<?xml version="1.0" encoding="utf-8"?>
<!-- Generator: Adobe Illustrator 25.0.0, SVG Export Plug-In . SVG Version: 6.00 Build 0)  -->
<svg version="1.1" xmlns="http://www.w3.org/2000/svg" xmlns:xlink="http://www.w3.org/1999/xlink" x="0px" y="0px"
	 viewBox="0 0 1000 1000" style="enable-background:new 0 0 1000 1000;" xml:space="preserve">
<style type="text/css">
	.st0{fill:#0E5257;}
</style>
<g id="Your_design">
</g>
<g id="Guides">
	<g>
		<g>
			<polygon class="st0" points="556.29,272.5 500,240 443.71,272.5 387.42,305 331.12,337.5 331.12,337.5 274.83,370 274.83,435 
				274.83,435 331.12,467.5 331.12,467.5 331.12,402.5 387.42,370 443.71,337.5 500,305 556.29,337.5 556.29,402.5 556.29,402.5 
				556.29,402.5 556.29,467.5 556.29,532.5 556.29,532.5 612.58,565 612.58,500 612.58,435 612.58,370 612.58,370 612.58,305 			"/>
			<polygon class="st0" points="725.17,565 725.17,500 725.17,500 725.17,435 725.17,435 725.17,435 725.17,370 668.88,337.5 
				668.87,337.5 612.58,370 668.87,402.5 668.87,467.5 668.88,467.5 668.87,467.5 668.87,532.5 668.87,597.5 668.88,597.5 
				668.87,597.5 612.58,630 556.29,597.5 500,565 443.71,532.5 443.71,532.5 387.42,565 443.71,597.5 443.71,597.5 500,630 
				556.29,662.5 612.58,695 612.58,695 668.87,662.5 725.17,630 725.17,630 725.17,630 			"/>
			<polygon class="st0" points="556.29,662.5 500,695 500,695 443.71,662.5 387.42,630 331.12,597.5 331.12,597.5 331.12,532.5 
				387.42,500 443.71,467.5 500,435 500,370 443.71,402.5 443.71,402.5 443.71,402.5 387.42,435 331.12,467.5 331.12,467.5 
				331.12,467.5 274.83,500 274.83,500 274.83,565 274.83,630 331.12,662.5 387.42,695 443.71,727.5 500,760 556.29,727.5 
				556.29,727.5 556.29,727.5 			"/>
		</g>
	</g>
</g>
</svg>
